<svg width="10" height="11" viewBox="0 0 10 11" fill="none" xmlns="http://www.w3.org/2000/svg">
<path d="M9.23797 6.87685L8.35718 5.98848V4.81165C8.35617 3.99837 8.05621 3.21436 7.51531 2.61122C6.97441 2.00808 6.23099 1.62865 5.4288 1.5463V0.873535H4.77804V1.5463C3.97585 1.62865 3.23243 2.00808 2.69153 2.61122C2.15063 3.21436 1.85067 3.99837 1.84966 4.81165V5.98848L0.96887 6.87685C0.907846 6.93839 0.873554 7.02184 0.873535 7.10888V8.0934C0.873535 8.18044 0.907816 8.26391 0.968835 8.32546C1.02986 8.387 1.11262 8.42158 1.19891 8.42158H3.47654V8.67657C3.46946 9.09291 3.61496 9.49723 3.88514 9.81207C4.15533 10.1269 4.5312 10.3301 4.94073 10.3828C5.16693 10.4054 5.39531 10.38 5.6112 10.3083C5.82708 10.2365 6.02569 10.12 6.19425 9.96618C6.36281 9.81237 6.49758 9.62468 6.5899 9.41518C6.68222 9.20568 6.73005 8.97901 6.7303 8.74975V8.42158H9.00793C9.09422 8.42158 9.17698 8.387 9.238 8.32546C9.29902 8.26391 9.33331 8.18044 9.33331 8.0934V7.10888C9.33329 7.02184 9.29899 6.93839 9.23797 6.87685ZM6.07955 8.74975C6.07955 9.01087 5.97671 9.26129 5.79365 9.44592C5.61059 9.63056 5.36231 9.73428 5.10342 9.73428C4.84454 9.73428 4.59625 9.63056 4.41319 9.44592C4.23013 9.26129 4.12729 9.01087 4.12729 8.74975V8.42158H6.07955V8.74975ZM8.68255 7.76523H1.52429V7.24474L2.40508 6.35637C2.4661 6.29484 2.5004 6.21138 2.50041 6.12435V4.81165C2.50041 4.11534 2.77466 3.44756 3.26282 2.9552C3.75098 2.46284 4.41306 2.18624 5.10342 2.18624C5.79378 2.18624 6.45587 2.46284 6.94402 2.9552C7.43218 3.44756 7.70643 4.11534 7.70643 4.81165V6.12435C7.70644 6.21138 7.74074 6.29484 7.80176 6.35637L8.68255 7.24474V7.76523Z" fill="black"/>
<path d="M9.23797 6.87685L8.35718 5.98848V4.81165C8.35617 3.99837 8.05621 3.21436 7.51531 2.61122C6.97441 2.00808 6.23099 1.62865 5.4288 1.5463V0.873535H4.77804V1.5463C3.97585 1.62865 3.23243 2.00808 2.69153 2.61122C2.15063 3.21436 1.85067 3.99837 1.84966 4.81165V5.98848L0.96887 6.87685C0.907846 6.93839 0.873554 7.02184 0.873535 7.10888V8.0934C0.873535 8.18044 0.907816 8.26391 0.968835 8.32546C1.02986 8.387 1.11262 8.42158 1.19891 8.42158H3.47654V8.67657C3.46946 9.09291 3.61496 9.49723 3.88514 9.81207C4.15533 10.1269 4.5312 10.3301 4.94073 10.3828C5.16693 10.4054 5.39531 10.38 5.6112 10.3083C5.82708 10.2365 6.02569 10.12 6.19425 9.96618C6.36281 9.81237 6.49758 9.62468 6.5899 9.41518C6.68222 9.20568 6.73005 8.97901 6.7303 8.74975V8.42158H9.00793C9.09422 8.42158 9.17698 8.387 9.238 8.32546C9.29902 8.26391 9.33331 8.18044 9.33331 8.0934V7.10888C9.33329 7.02184 9.29899 6.93839 9.23797 6.87685ZM6.07955 8.74975C6.07955 9.01087 5.97671 9.26129 5.79365 9.44592C5.61059 9.63056 5.36231 9.73428 5.10342 9.73428C4.84454 9.73428 4.59625 9.63056 4.41319 9.44592C4.23013 9.26129 4.12729 9.01087 4.12729 8.74975V8.42158H6.07955V8.74975ZM8.68255 7.76523H1.52429V7.24474L2.40508 6.35637C2.4661 6.29484 2.5004 6.21138 2.50041 6.12435V4.81165C2.50041 4.11534 2.77466 3.44756 3.26282 2.9552C3.75098 2.46284 4.41306 2.18624 5.10342 2.18624C5.79378 2.18624 6.45587 2.46284 6.94402 2.9552C7.43218 3.44756 7.70643 4.11534 7.70643 4.81165V6.12435C7.70644 6.21138 7.74074 6.29484 7.80176 6.35637L8.68255 7.24474V7.76523Z" stroke="black"/>
</svg>
